<svg width="48" xmlns="http://www.w3.org/2000/svg" height="48" fill="none"><g style="fill: rgb(0, 0, 0);"><path d="M45.000,33.678L45.000,14.321C45.000,12.886,44.231,11.561,42.985,10.848L25.985,1.134C24.755,0.431,23.245,0.431,22.016,1.134L5.015,10.848C3.769,11.561,3.000,12.886,3.000,14.321L3.000,33.678C3.000,35.114,3.769,36.439,5.015,37.151L22.016,46.866C23.245,47.568,24.755,47.568,25.985,46.866L42.985,37.151C44.231,36.439,45.000,35.114,45.000,33.678ZZ" style="fill: rgb(23, 23, 23);" class="fills"/><path d="M24.000,21.000L30.500,25.000L37.000,21.000L37.000,30.197C37.000,30.914,36.616,31.577,35.993,31.933L12.008,31.933C11.385,31.577,11.000,30.914,11.000,30.197L11.000,21.000L17.500,25.000L24.000,21.000ZL24.000,21.000Z" style="fill: rgb(255, 255, 255);" class="fills"/><path d="M23.293,15.714C23.683,15.324,24.317,15.324,24.707,15.714L27.293,18.300C27.683,18.691,27.683,19.324,27.293,19.714L24.707,22.300C24.317,22.691,23.683,22.691,23.293,22.300L20.707,19.714C20.317,19.324,20.317,18.691,20.707,18.300L23.293,15.714ZZ" style="fill: rgb(255, 255, 255);" class="fills"/><path d="M36.022,15.714C36.412,15.324,37.045,15.324,37.436,15.714L40.022,18.300C40.412,18.691,40.412,19.324,40.022,19.714L37.436,22.300C37.045,22.691,36.412,22.691,36.022,22.300L33.436,19.714C33.045,19.324,33.045,18.691,33.436,18.300L36.022,15.714ZZ" style="fill: rgb(255, 255, 255);" class="fills"/><path d="M10.688,15.714C11.079,15.324,11.712,15.324,12.102,15.714L14.688,18.300C15.079,18.691,15.079,19.324,14.688,19.714L12.102,22.300C11.712,22.691,11.079,22.691,10.688,22.300L8.102,19.714C7.712,19.324,7.712,18.691,8.102,18.300L10.688,15.714ZZ" style="fill: rgb(255, 255, 255);" class="fills"/></g></svg>