<svg width="33" height="32" viewBox="0 0 33 32" fill="none" xmlns="http://www.w3.org/2000/svg">
<path d="M30.0419 22.4524V9.5476C30.0419 8.59064 29.5291 7.70705 28.6982 7.23228L17.3648 0.756073C16.545 0.28761 15.5385 0.287612 14.7187 0.756079L3.38538 7.23227C2.55451 7.70705 2.04175 8.59064 2.04175 9.54759V22.4524C2.04175 23.4094 2.55452 24.293 3.38539 24.7677L14.7189 31.2439C15.5387 31.7123 16.5451 31.7123 17.3649 31.2439L28.6982 24.7677C29.5291 24.293 30.0419 23.4094 30.0419 22.4524Z" fill="#DC2626"/>
<path d="M30.0419 22.4524V9.5476C30.0419 8.59064 29.5291 7.70705 28.6982 7.23228L17.3648 0.756073C16.545 0.28761 15.5385 0.287612 14.7187 0.756079L3.38538 7.23227C2.55451 7.70705 2.04175 8.59064 2.04175 9.54759V22.4524C2.04175 23.4094 2.55452 24.293 3.38539 24.7677L14.7189 31.2439C15.5387 31.7123 16.5451 31.7123 17.3649 31.2439L28.6982 24.7677C29.5291 24.293 30.0419 23.4094 30.0419 22.4524Z" fill="#EF4444"/>
<path d="M2.04175 22.4524C2.04175 23.4094 2.55451 24.293 3.38539 24.7677L14.7451 31.259C15.3229 31.5891 16.0417 31.1719 16.0417 30.5065V17.5475C16.0417 16.5906 15.529 15.707 14.6981 15.2322L3.3384 8.741C2.76063 8.41085 2.04175 8.82803 2.04175 9.49348V22.4524Z" fill="#991B1B"/>
</svg>
