<svg xmlns:xlink="http://www.w3.org/1999/xlink" width="26.136" xmlns="http://www.w3.org/2000/svg" height="27.392" id="screenshot-de3f5f2e-651c-801e-8003-497b6baebd5c" viewBox="-5.227 -1.305 26.136 27.392" style="-webkit-print-color-adjust: exact;" fill="none" version="1.1"><g id="shape-de3f5f2e-651c-801e-8003-497b6baebd5c" rx="0" ry="0"><g id="shape-de3f5f2e-651c-801e-8003-497abeb7e6e4"><g class="fills" id="fills-de3f5f2e-651c-801e-8003-497abeb7e6e4"><path d="M10.235777410044818,2.5312758605410863 h6.5 a1,1 0 0 1 1,1 v6 a0,0 0 0 1 0,0 h-8.5 a0,0 0 0 1 0,0 v-6 a1,1 0 0 1 1,-1 z" x="9.235777410044818" y="2.5312758605410863" transform="matrix(0.767072, 0.641561, -0.641561, 0.767072, 7.010645, -7.247096)" width="8.5" height="7" style="fill: rgb(155, 155, 155); fill-opacity: 1;"/></g></g><g id="shape-de3f5f2e-651c-801e-8003-497ad39f5ab2"><g class="fills" id="fills-de3f5f2e-651c-801e-8003-497ad39f5ab2"><rect rx="0" ry="0" x="14.469714467628762" y="5.386935461206235" transform="matrix(0.767072, 0.641561, -0.641561, 0.767072, 7.700937, -8.437069)" width="2" height="2" style="fill: rgb(235, 235, 235); fill-opacity: 1;"/></g></g><g id="shape-de3f5f2e-651c-801e-8003-497ad9b00fdb"><g class="fills" id="fills-de3f5f2e-651c-801e-8003-497ad9b00fdb"><rect rx="0" ry="0" x="11.78496225215207" y="3.141472136746529" transform="matrix(0.767072, 0.641561, -0.641561, 0.767072, 5.634982, -7.237668)" width="2.000000000000057" height="2.0000000000001137" style="fill: rgb(235, 235, 235); fill-opacity: 1;"/></g></g><g id="shape-de3f5f2e-651c-801e-8003-497aedbb68e1"><g class="fills" id="fills-de3f5f2e-651c-801e-8003-497aedbb68e1"><path d="M-1.725502478416331,7.459286392639228 h13.999999999999886 a0,0 0 0 1 0,0 v10 a6,6 0 0 1 -6,6 h-1.9999999999998863 a6,6 0 0 1 -6,-6 v-10 a0,0 0 0 1 0,0 z" x="-1.725502478416331" y="7.459286392639228" transform="matrix(0.767072, 0.641561, -0.641561, 0.767072, 11.146652, 0.216988)" width="13.999999999999886" height="16" style="fill: rgb(155, 155, 155); fill-opacity: 1;"/></g></g></g></svg>