<svg width="48" height="48" viewBox="0 0 48 48" fill="none" xmlns="http://www.w3.org/2000/svg">
<path d="M27.0001 24.8393V15.1607C27.0001 14.4429 26.6155 13.7802 25.9924 13.4242L17.4923 8.56701C16.8774 8.21566 16.1226 8.21566 15.5077 8.56701L7.00772 13.4242C6.38457 13.7802 6 14.4429 6 15.1606V24.8393C6 25.557 6.38458 26.2197 7.00774 26.5758L15.5078 31.4329C16.1227 31.7842 16.8775 31.7842 17.4924 31.4329L25.9924 26.5758C26.6155 26.2197 27.0001 25.557 27.0001 24.8393Z" fill="#FECACA"/>
<path d="M6 24.8393C6 25.557 6.38458 26.2197 7.00773 26.5758L15.5275 31.4442C15.9608 31.6918 16.5 31.3789 16.5 30.8798V21.1606C16.5 20.4429 16.1154 19.7802 15.4923 19.4241L6.97249 14.5557C6.53916 14.3081 6 14.621 6 15.1201V24.8393Z" fill="#FCA5A5"/>
<path d="M43.0001 33.8393V24.1607C43.0001 23.4429 42.6155 22.7802 41.9924 22.4242L33.4923 17.567C32.8774 17.2157 32.1226 17.2157 31.5077 17.567L23.0077 22.4242C22.3846 22.7802 22 23.4429 22 24.1606V33.8393C22 34.557 22.3846 35.2197 23.0077 35.5758L31.5078 40.4329C32.1227 40.7842 32.8775 40.7842 33.4924 40.4329L41.9924 35.5758C42.6155 35.2197 43.0001 34.557 43.0001 33.8393Z" fill="#EF4444"/>
<path d="M22 33.8393C22 34.557 22.3846 35.2197 23.0077 35.5758L31.5275 40.4442C31.9608 40.6918 32.5 40.3789 32.5 39.8798V30.1606C32.5 29.4429 32.1154 28.7802 31.4923 28.4241L22.9725 23.5557C22.5392 23.3081 22 23.621 22 24.1201V33.8393Z" fill="#991B1B"/>
</svg>
