<svg xmlns="http://www.w3.org/2000/svg" width="24" height="25" fill="none" viewBox="0 0 24 25">
    <path stroke="#737373" stroke-linecap="round" stroke-linejoin="round" stroke-width="2" d="M10 8.645a1 1 0 1 0 0-2 1 1 0 0 0 0 2m-6 13a1 1 0 1 0 0-2 1 1 0 0 0 0 2m.7-1.7L19 5.645m2-2-3 1 2 2z"/>
    <path stroke="#737373" stroke-linecap="round" stroke-linejoin="round" stroke-width="2" d="M9.26 8.324 5 12.644l2 5m3-2.999 5 2 3.5-3.5"/>
    <path stroke="#737373" stroke-linecap="round" stroke-linejoin="round" stroke-width="2" d="m18 12.645 1-1 1 1-1 1z"/>
</svg>
